# xmcd
#
# Track frame offsets:
#	150
#	17571
#	33555
#	49040
#	66462
#	82445
#
# Disc length: 1303 seconds
#
# Revision: 0
# Processed by: cddbd v1.5.2PL0 Copyright (c) Steve Scherf et al.
# Submitted via: EasyCDDAExtractor 10.0.6.1
#
DISCID=51051506
DTITLE=브이오에스(V.O.S-Voice Of Soul) - 꽃이 웃는다 (Special Single) (서울음반-2007)
DYEAR=2007
DGENRE=Soul
TTITLE0=매일 매일
TTITLE1=쉬운가봐요
TTITLE2=부디
TTITLE3=매일 매일 (Instrumental)
TTITLE4=쉬운가봐요 (Instrumental With Chorus)
TTITLE5=부디 (Instrumental With Chorus)
EXTD=
EXTT0=
EXTT1=
EXTT2=
EXTT3=
EXTT4=
EXTT5=
PLAYORDER=
